# xmcd CD database file
#
# Track frame offsets:
#	150
#	61962
#	110605
#	189735
#	234320
#	268650
#	301430
#
# Disc length: 4553 seconds
#
# Revision: 8
# Processed by: cddbd v1.5.2PL0 Copyright (c) Steve Scherf et al.
# Submitted via: CDex 1.51
#
DISCID=5e11c707
DTITLE=Brad Mehldau - The Art of the Trio 4 - Back At The Vanguard
DYEAR=1999
DGENRE=Jazz
TTITLE0=All the things you are
TTITLE1=Sehnsucht
TTITLE2=Nice pass
TTITLE3=Solar
TTITLE4=London blues
TTITLE5=I'll be seeing you
TTITLE6=Exit music (for a film)
EXTD=Brad Mehldau - piano\nLarry Grenadier - bass\nJorge Rossy - drums\n\nRecorded January 5-10, 1999 at the Village Vanguard, New York, NY YEAR: 1999
EXTT0=
EXTT1=
EXTT2=
EXTT3=
EXTT4=
EXTT5=
EXTT6=
PLAYORDER=
